<mxfile host="app.diagrams.net" modified="2022-12-30T09:59:13.218Z" agent="5.0 (Windows NT 10.0; Win64; x64) AppleWebKit/537.36 (KHTML, like Gecko) Chrome/108.0.0.0 Safari/537.36 Edg/108.0.1462.54" version="20.7.4" etag="ySWWKivx1ikuqzDHTQec" type="github">
  <diagram id="BisNBrmIM6S1YwdgQ8Yc" name="第 1 页">
    <mxGraphModel dx="5925" dy="6209" grid="1" gridSize="10" guides="1" tooltips="1" connect="1" arrows="1" fold="1" page="1" pageScale="1" pageWidth="3300" pageHeight="4681" math="1" shadow="0">
      <root>
        <mxCell id="0" />
        <mxCell id="1" parent="0" />
        <mxCell id="w1fpIYrP4pAR_N1d89Iz-11" value="" style="points=[];aspect=fixed;html=1;align=center;shadow=0;dashed=0;image;image=img/lib/allied_telesis/buildings/Building_Cluster.svg;" vertex="1" parent="1">
          <mxGeometry x="970" width="174.97" height="160.25" as="geometry" />
        </mxCell>
        <mxCell id="w1fpIYrP4pAR_N1d89Iz-12" value="" style="ellipse;whiteSpace=wrap;html=1;fillColor=#f0a30a;fontColor=#000000;strokeColor=#BD7000;" vertex="1" parent="1">
          <mxGeometry x="320" y="210" width="360" height="202.4" as="geometry" />
        </mxCell>
        <mxCell id="w1fpIYrP4pAR_N1d89Iz-13" value="" style="points=[];aspect=fixed;html=1;align=center;shadow=0;dashed=0;image;image=img/lib/allied_telesis/buildings/Building_Cluster.svg;" vertex="1" parent="1">
          <mxGeometry x="970" y="140" width="199.47" height="182.68" as="geometry" />
        </mxCell>
        <mxCell id="w1fpIYrP4pAR_N1d89Iz-14" value="" style="points=[];aspect=fixed;html=1;align=center;shadow=0;dashed=0;image;image=img/lib/allied_telesis/buildings/Building_Cluster.svg;" vertex="1" parent="1">
          <mxGeometry x="900" y="310" width="197.63" height="181" as="geometry" />
        </mxCell>
        <mxCell id="w1fpIYrP4pAR_N1d89Iz-17" value="" style="points=[];aspect=fixed;html=1;align=center;shadow=0;dashed=0;image;image=img/lib/allied_telesis/computer_and_terminals/Tablet.svg;direction=east;" vertex="1" parent="1">
          <mxGeometry x="350" y="-320" width="50" height="105.57" as="geometry" />
        </mxCell>
        <mxCell id="w1fpIYrP4pAR_N1d89Iz-18" value="" style="fontColor=#0066CC;verticalAlign=top;verticalLabelPosition=bottom;labelPosition=center;align=center;html=1;outlineConnect=0;fillColor=#CCCCCC;strokeColor=#6881B3;gradientColor=none;gradientDirection=north;strokeWidth=2;shape=mxgraph.networks.radio_tower;rotation=1;" vertex="1" parent="1">
          <mxGeometry x="400" y="30" width="200" height="301" as="geometry" />
        </mxCell>
        <mxCell id="w1fpIYrP4pAR_N1d89Iz-21" value="" style="shape=mxgraph.arrows2.wedgeArrowDashed2;html=1;bendable=0;startWidth=202.85714285714286;stepSize=15;rounded=0;" edge="1" parent="1">
          <mxGeometry x="-0.4506" y="16" width="100" height="100" relative="1" as="geometry">
            <mxPoint x="919.9999999999999" y="190" as="sourcePoint" />
            <mxPoint x="600" y="100" as="targetPoint" />
            <Array as="points">
              <mxPoint x="939.9999999999999" y="290" />
              <mxPoint x="740" y="190" />
              <mxPoint x="879.9999999999999" y="210" />
              <mxPoint x="919.9999999999999" y="400" />
              <mxPoint x="939.9999999999999" y="470" />
              <mxPoint x="780" y="330" />
            </Array>
            <mxPoint y="-1" as="offset" />
          </mxGeometry>
        </mxCell>
        <mxCell id="w1fpIYrP4pAR_N1d89Iz-25" value="&lt;font style=&quot;font-size: 30px;&quot;&gt;&lt;font color=&quot;#ff3333&quot;&gt;NLOS mmWave&lt;/font&gt;&amp;nbsp;&lt;/font&gt;" style="edgeLabel;html=1;align=center;verticalAlign=middle;resizable=0;points=[];fontSize=17;fontFamily=Times New Roman;fontColor=#3333FF;" vertex="1" connectable="0" parent="w1fpIYrP4pAR_N1d89Iz-21">
          <mxGeometry x="-0.4211" y="54" relative="1" as="geometry">
            <mxPoint x="10" y="-11" as="offset" />
          </mxGeometry>
        </mxCell>
        <mxCell id="w1fpIYrP4pAR_N1d89Iz-22" value="" style="shape=mxgraph.arrows2.wedgeArrowDashed2;html=1;bendable=0;startWidth=67.14285714285715;stepSize=15;rounded=0;" edge="1" parent="1" target="w1fpIYrP4pAR_N1d89Iz-18">
          <mxGeometry x="1" y="-20" width="100" height="100" relative="1" as="geometry">
            <mxPoint x="380" y="-210" as="sourcePoint" />
            <mxPoint x="570" y="-40" as="targetPoint" />
            <mxPoint x="-6" y="14" as="offset" />
          </mxGeometry>
        </mxCell>
        <mxCell id="w1fpIYrP4pAR_N1d89Iz-23" value="&lt;font color=&quot;#ff3333&quot; face=&quot;Times New Roman&quot; style=&quot;font-size: 32px;&quot;&gt;Majority of users&lt;/font&gt;" style="text;html=1;strokeColor=none;fillColor=none;align=center;verticalAlign=middle;whiteSpace=wrap;rounded=0;" vertex="1" parent="1">
          <mxGeometry x="990" y="-120" width="248.7" height="140" as="geometry" />
        </mxCell>
        <mxCell id="w1fpIYrP4pAR_N1d89Iz-24" value="&lt;font color=&quot;#3333ff&quot; face=&quot;Times New Roman&quot; style=&quot;font-size: 17px;&quot;&gt;Minority of users&lt;/font&gt;" style="text;html=1;strokeColor=none;fillColor=none;align=center;verticalAlign=middle;whiteSpace=wrap;rounded=0;" vertex="1" parent="1">
          <mxGeometry x="300" y="-360" width="128.7" height="30" as="geometry" />
        </mxCell>
        <mxCell id="w1fpIYrP4pAR_N1d89Iz-27" value="&lt;font style=&quot;font-size: 21px;&quot;&gt;NLOS mmWave&amp;nbsp;&lt;/font&gt;" style="edgeLabel;html=1;align=center;verticalAlign=middle;resizable=0;points=[];fontSize=17;fontFamily=Times New Roman;fontColor=#3333FF;rotation=-115;" vertex="1" connectable="0" parent="1">
          <mxGeometry x="409.99948546768326" y="-130.00259662472124" as="geometry">
            <mxPoint x="-22.718765939471503" y="-12.800690379331483" as="offset" />
          </mxGeometry>
        </mxCell>
        <mxCell id="w1fpIYrP4pAR_N1d89Iz-28" value="" style="endArrow=none;dashed=1;html=1;dashPattern=1 3;strokeWidth=2;rounded=0;fontFamily=Times New Roman;fontSize=21;fontColor=#FF3333;exitX=0.5;exitY=0.15;exitDx=0;exitDy=0;exitPerimeter=0;" edge="1" parent="1" source="w1fpIYrP4pAR_N1d89Iz-18">
          <mxGeometry width="50" height="50" relative="1" as="geometry">
            <mxPoint x="590" y="20" as="sourcePoint" />
            <mxPoint x="530" y="-380" as="targetPoint" />
          </mxGeometry>
        </mxCell>
        <mxCell id="w1fpIYrP4pAR_N1d89Iz-29" value="" style="endArrow=none;dashed=1;html=1;dashPattern=1 3;strokeWidth=2;rounded=0;fontFamily=Times New Roman;fontSize=21;fontColor=#FF3333;exitX=0.5;exitY=0.15;exitDx=0;exitDy=0;exitPerimeter=0;" edge="1" parent="1" source="w1fpIYrP4pAR_N1d89Iz-18">
          <mxGeometry width="50" height="50" relative="1" as="geometry">
            <mxPoint x="603.7611988952913" y="41.613682443857215" as="sourcePoint" />
            <mxPoint x="840" y="400" as="targetPoint" />
          </mxGeometry>
        </mxCell>
        <mxCell id="w1fpIYrP4pAR_N1d89Iz-30" value="" style="endArrow=none;dashed=1;html=1;dashPattern=1 3;strokeWidth=2;rounded=0;fontFamily=Times New Roman;fontSize=21;fontColor=#FF3333;exitX=0.5;exitY=0.15;exitDx=0;exitDy=0;exitPerimeter=0;" edge="1" parent="1" source="w1fpIYrP4pAR_N1d89Iz-18">
          <mxGeometry width="50" height="50" relative="1" as="geometry">
            <mxPoint x="530" y="60" as="sourcePoint" />
            <mxPoint x="230" y="-160" as="targetPoint" />
          </mxGeometry>
        </mxCell>
        <mxCell id="w1fpIYrP4pAR_N1d89Iz-31" value="" style="endArrow=none;dashed=1;html=1;dashPattern=1 3;strokeWidth=2;rounded=0;fontFamily=Times New Roman;fontSize=21;fontColor=#FF3333;exitX=0.5;exitY=0.15;exitDx=0;exitDy=0;exitPerimeter=0;" edge="1" parent="1">
          <mxGeometry width="50" height="50" relative="1" as="geometry">
            <mxPoint x="511.83861101816797" y="85.16604531527355" as="sourcePoint" />
            <mxPoint x="950" y="-90" as="targetPoint" />
          </mxGeometry>
        </mxCell>
        <mxCell id="w1fpIYrP4pAR_N1d89Iz-32" value="" style="endArrow=none;dashed=1;html=1;dashPattern=1 3;strokeWidth=2;rounded=0;fontFamily=Times New Roman;fontSize=21;fontColor=#FF3333;" edge="1" parent="1">
          <mxGeometry width="50" height="50" relative="1" as="geometry">
            <mxPoint x="530" y="60" as="sourcePoint" />
            <mxPoint x="800" y="-290" as="targetPoint" />
          </mxGeometry>
        </mxCell>
        <mxCell id="w1fpIYrP4pAR_N1d89Iz-34" value="" style="endArrow=none;dashed=1;html=1;dashPattern=1 3;strokeWidth=2;rounded=0;fontFamily=Times New Roman;fontSize=21;fontColor=#FF3333;fillColor=#ffe6cc;strokeColor=#d79b00;" edge="1" parent="1">
          <mxGeometry width="50" height="50" relative="1" as="geometry">
            <mxPoint x="560" y="-240" as="sourcePoint" />
            <mxPoint x="670" y="-210" as="targetPoint" />
          </mxGeometry>
        </mxCell>
        <mxCell id="w1fpIYrP4pAR_N1d89Iz-36" value="" style="endArrow=none;dashed=1;html=1;dashPattern=1 3;strokeWidth=2;rounded=0;fontFamily=Times New Roman;fontSize=21;fontColor=#FF3333;fillColor=#ffe6cc;strokeColor=#d79b00;" edge="1" parent="1">
          <mxGeometry width="50" height="50" relative="1" as="geometry">
            <mxPoint x="760" y="-180" as="sourcePoint" />
            <mxPoint x="850" y="-100" as="targetPoint" />
          </mxGeometry>
        </mxCell>
        <mxCell id="w1fpIYrP4pAR_N1d89Iz-38" value="&lt;font color=&quot;#3333ff&quot;&gt;Region 1&lt;/font&gt;" style="text;html=1;align=center;verticalAlign=middle;resizable=0;points=[];autosize=1;strokeColor=none;fillColor=none;fontSize=21;fontFamily=Times New Roman;fontColor=#FF3333;" vertex="1" parent="1">
          <mxGeometry x="190" y="-287.21" width="100" height="40" as="geometry" />
        </mxCell>
        <mxCell id="w1fpIYrP4pAR_N1d89Iz-41" value="Region Q" style="text;html=1;align=center;verticalAlign=middle;resizable=0;points=[];autosize=1;strokeColor=none;fillColor=none;fontSize=21;fontFamily=Times New Roman;fontColor=#FF3333;" vertex="1" parent="1">
          <mxGeometry x="1200" y="130" width="100" height="40" as="geometry" />
        </mxCell>
        <mxCell id="w1fpIYrP4pAR_N1d89Iz-102" value="" style="shape=flexArrow;endArrow=classic;startArrow=classic;html=1;rounded=0;fontFamily=Times New Roman;fontSize=21;fontColor=#000000;width=32.85714285714286;startSize=4.2;exitX=0.5;exitY=-0.157;exitDx=0;exitDy=0;exitPerimeter=0;fillColor=#b1ddf0;strokeColor=#10739e;" edge="1" parent="1" source="w1fpIYrP4pAR_N1d89Iz-101">
          <mxGeometry width="100" height="100" relative="1" as="geometry">
            <mxPoint x="530" y="420" as="sourcePoint" />
            <mxPoint x="500" y="310" as="targetPoint" />
          </mxGeometry>
        </mxCell>
        <mxCell id="w1fpIYrP4pAR_N1d89Iz-107" value="" style="group" vertex="1" connectable="0" parent="1">
          <mxGeometry x="-140" y="440" width="740" height="419" as="geometry" />
        </mxCell>
        <mxCell id="w1fpIYrP4pAR_N1d89Iz-97" value="" style="group" vertex="1" connectable="0" parent="w1fpIYrP4pAR_N1d89Iz-107">
          <mxGeometry y="49" width="740" height="370" as="geometry" />
        </mxCell>
        <mxCell id="w1fpIYrP4pAR_N1d89Iz-106" value="" style="group" vertex="1" connectable="0" parent="w1fpIYrP4pAR_N1d89Iz-97">
          <mxGeometry x="40" y="30" width="700" height="340" as="geometry" />
        </mxCell>
        <mxCell id="w1fpIYrP4pAR_N1d89Iz-72" value="" style="group" vertex="1" connectable="0" parent="w1fpIYrP4pAR_N1d89Iz-106">
          <mxGeometry x="210" y="10" width="315" height="330" as="geometry" />
        </mxCell>
        <mxCell id="w1fpIYrP4pAR_N1d89Iz-43" value="" style="rounded=1;whiteSpace=wrap;html=1;fontFamily=Helvetica;fontSize=19;" vertex="1" parent="w1fpIYrP4pAR_N1d89Iz-72">
          <mxGeometry x="40" y="50" width="80" height="280" as="geometry" />
        </mxCell>
        <mxCell id="w1fpIYrP4pAR_N1d89Iz-44" value="" style="triangle;whiteSpace=wrap;html=1;rotation=90;" vertex="1" parent="w1fpIYrP4pAR_N1d89Iz-72">
          <mxGeometry x="60" y="55" width="20" height="40" as="geometry" />
        </mxCell>
        <mxCell id="w1fpIYrP4pAR_N1d89Iz-45" value="" style="ellipse;whiteSpace=wrap;html=1;aspect=fixed;" vertex="1" parent="w1fpIYrP4pAR_N1d89Iz-72">
          <mxGeometry x="170" y="110" width="20" height="20" as="geometry" />
        </mxCell>
        <mxCell id="w1fpIYrP4pAR_N1d89Iz-46" value="" style="endArrow=none;html=1;rounded=0;entryX=1;entryY=0.5;entryDx=0;entryDy=0;" edge="1" parent="w1fpIYrP4pAR_N1d89Iz-72" source="w1fpIYrP4pAR_N1d89Iz-45" target="w1fpIYrP4pAR_N1d89Iz-44">
          <mxGeometry width="50" height="50" relative="1" as="geometry">
            <mxPoint x="120" y="270" as="sourcePoint" />
            <mxPoint x="170" y="220" as="targetPoint" />
            <Array as="points">
              <mxPoint x="70" y="120" />
            </Array>
          </mxGeometry>
        </mxCell>
        <mxCell id="w1fpIYrP4pAR_N1d89Iz-47" value="" style="endArrow=classic;html=1;rounded=0;exitX=0;exitY=1;exitDx=0;exitDy=0;entryX=1;entryY=0;entryDx=0;entryDy=0;" edge="1" parent="w1fpIYrP4pAR_N1d89Iz-72" source="w1fpIYrP4pAR_N1d89Iz-45" target="w1fpIYrP4pAR_N1d89Iz-45">
          <mxGeometry width="50" height="50" relative="1" as="geometry">
            <mxPoint x="110" y="210" as="sourcePoint" />
            <mxPoint x="120" y="200" as="targetPoint" />
          </mxGeometry>
        </mxCell>
        <mxCell id="w1fpIYrP4pAR_N1d89Iz-48" value="" style="triangle;whiteSpace=wrap;html=1;rotation=90;" vertex="1" parent="w1fpIYrP4pAR_N1d89Iz-72">
          <mxGeometry x="60" y="130" width="20" height="40" as="geometry" />
        </mxCell>
        <mxCell id="w1fpIYrP4pAR_N1d89Iz-49" value="" style="ellipse;whiteSpace=wrap;html=1;aspect=fixed;" vertex="1" parent="w1fpIYrP4pAR_N1d89Iz-72">
          <mxGeometry x="170" y="185" width="20" height="20" as="geometry" />
        </mxCell>
        <mxCell id="w1fpIYrP4pAR_N1d89Iz-50" value="" style="endArrow=none;html=1;rounded=0;entryX=1;entryY=0.5;entryDx=0;entryDy=0;" edge="1" parent="w1fpIYrP4pAR_N1d89Iz-72" source="w1fpIYrP4pAR_N1d89Iz-49" target="w1fpIYrP4pAR_N1d89Iz-48">
          <mxGeometry width="50" height="50" relative="1" as="geometry">
            <mxPoint x="120" y="345" as="sourcePoint" />
            <mxPoint x="170" y="295" as="targetPoint" />
            <Array as="points">
              <mxPoint x="70" y="195" />
            </Array>
          </mxGeometry>
        </mxCell>
        <mxCell id="w1fpIYrP4pAR_N1d89Iz-51" value="" style="endArrow=classic;html=1;rounded=0;exitX=0;exitY=1;exitDx=0;exitDy=0;entryX=1;entryY=0;entryDx=0;entryDy=0;" edge="1" parent="w1fpIYrP4pAR_N1d89Iz-72" source="w1fpIYrP4pAR_N1d89Iz-49" target="w1fpIYrP4pAR_N1d89Iz-49">
          <mxGeometry width="50" height="50" relative="1" as="geometry">
            <mxPoint x="110" y="285" as="sourcePoint" />
            <mxPoint x="120" y="275" as="targetPoint" />
          </mxGeometry>
        </mxCell>
        <mxCell id="w1fpIYrP4pAR_N1d89Iz-52" value="" style="triangle;whiteSpace=wrap;html=1;rotation=90;" vertex="1" parent="w1fpIYrP4pAR_N1d89Iz-72">
          <mxGeometry x="60" y="250" width="20" height="40" as="geometry" />
        </mxCell>
        <mxCell id="w1fpIYrP4pAR_N1d89Iz-53" value="" style="ellipse;whiteSpace=wrap;html=1;aspect=fixed;" vertex="1" parent="w1fpIYrP4pAR_N1d89Iz-72">
          <mxGeometry x="170" y="305" width="20" height="20" as="geometry" />
        </mxCell>
        <mxCell id="w1fpIYrP4pAR_N1d89Iz-54" value="" style="endArrow=none;html=1;rounded=0;entryX=1;entryY=0.5;entryDx=0;entryDy=0;" edge="1" parent="w1fpIYrP4pAR_N1d89Iz-72" source="w1fpIYrP4pAR_N1d89Iz-53" target="w1fpIYrP4pAR_N1d89Iz-52">
          <mxGeometry width="50" height="50" relative="1" as="geometry">
            <mxPoint x="120" y="465" as="sourcePoint" />
            <mxPoint x="170" y="415" as="targetPoint" />
            <Array as="points">
              <mxPoint x="120" y="315" />
              <mxPoint x="70" y="315" />
            </Array>
          </mxGeometry>
        </mxCell>
        <mxCell id="w1fpIYrP4pAR_N1d89Iz-55" value="" style="endArrow=classic;html=1;rounded=0;exitX=0;exitY=1;exitDx=0;exitDy=0;entryX=1;entryY=0;entryDx=0;entryDy=0;" edge="1" parent="w1fpIYrP4pAR_N1d89Iz-72" source="w1fpIYrP4pAR_N1d89Iz-53" target="w1fpIYrP4pAR_N1d89Iz-53">
          <mxGeometry width="50" height="50" relative="1" as="geometry">
            <mxPoint x="110" y="405" as="sourcePoint" />
            <mxPoint x="120" y="395" as="targetPoint" />
          </mxGeometry>
        </mxCell>
        <mxCell id="w1fpIYrP4pAR_N1d89Iz-56" value="" style="endArrow=classic;html=1;rounded=0;exitX=1;exitY=1;exitDx=0;exitDy=0;entryX=0.25;entryY=0;entryDx=0;entryDy=0;" edge="1" parent="w1fpIYrP4pAR_N1d89Iz-72" source="w1fpIYrP4pAR_N1d89Iz-45" target="w1fpIYrP4pAR_N1d89Iz-58">
          <mxGeometry width="50" height="50" relative="1" as="geometry">
            <mxPoint x="300" y="240" as="sourcePoint" />
            <mxPoint x="290" y="180" as="targetPoint" />
          </mxGeometry>
        </mxCell>
        <mxCell id="w1fpIYrP4pAR_N1d89Iz-57" value="" style="endArrow=classic;html=1;rounded=0;exitX=1;exitY=0;exitDx=0;exitDy=0;" edge="1" parent="w1fpIYrP4pAR_N1d89Iz-72" source="w1fpIYrP4pAR_N1d89Iz-53">
          <mxGeometry width="50" height="50" relative="1" as="geometry">
            <mxPoint x="300" y="240" as="sourcePoint" />
            <mxPoint x="290" y="220" as="targetPoint" />
          </mxGeometry>
        </mxCell>
        <mxCell id="w1fpIYrP4pAR_N1d89Iz-58" value="$$ \Sigma&lt;br&gt;$$" style="text;strokeColor=none;align=center;fillColor=none;html=1;verticalAlign=middle;whiteSpace=wrap;rounded=0;" vertex="1" parent="w1fpIYrP4pAR_N1d89Iz-72">
          <mxGeometry x="285" y="187.5" width="30" height="30" as="geometry" />
        </mxCell>
        <mxCell id="w1fpIYrP4pAR_N1d89Iz-59" value="" style="endArrow=classic;html=1;rounded=0;exitX=1;exitY=0.5;exitDx=0;exitDy=0;" edge="1" parent="w1fpIYrP4pAR_N1d89Iz-72" source="w1fpIYrP4pAR_N1d89Iz-49" target="w1fpIYrP4pAR_N1d89Iz-58">
          <mxGeometry width="50" height="50" relative="1" as="geometry">
            <mxPoint x="300" y="290" as="sourcePoint" />
            <mxPoint x="350" y="240" as="targetPoint" />
          </mxGeometry>
        </mxCell>
        <mxCell id="w1fpIYrP4pAR_N1d89Iz-69" value="&lt;font style=&quot;font-size: 19px;&quot;&gt;.....................&lt;/font&gt;" style="text;html=1;align=center;verticalAlign=middle;resizable=0;points=[];autosize=1;strokeColor=none;fillColor=none;fontFamily=Comic Sans MS;rotation=90;" vertex="1" parent="w1fpIYrP4pAR_N1d89Iz-72">
          <mxGeometry x="50" y="235" width="120" height="40" as="geometry" />
        </mxCell>
        <mxCell id="w1fpIYrP4pAR_N1d89Iz-71" value="&lt;font face=&quot;Helvetica&quot;&gt;&lt;br&gt;$$M\, \textrm{antennas}$$&amp;nbsp;&lt;/font&gt;" style="text;html=1;strokeColor=none;fillColor=none;align=center;verticalAlign=middle;whiteSpace=wrap;rounded=0;fontFamily=Comic Sans MS;fontSize=19;" vertex="1" parent="w1fpIYrP4pAR_N1d89Iz-72">
          <mxGeometry width="190" height="50" as="geometry" />
        </mxCell>
        <mxCell id="w1fpIYrP4pAR_N1d89Iz-81" value="" style="verticalLabelPosition=bottom;verticalAlign=top;html=1;shape=mxgraph.basic.arc;startAngle=0.9441316991970126;endAngle=0.07780326863337177;fontFamily=Times New Roman;fontSize=21;fontColor=#ffffff;rotation=-15;fillColor=#0050ef;strokeColor=#001DBC;" vertex="1" parent="w1fpIYrP4pAR_N1d89Iz-72">
          <mxGeometry x="-22.5" y="70" width="100" height="90" as="geometry" />
        </mxCell>
        <mxCell id="w1fpIYrP4pAR_N1d89Iz-82" value="&lt;font color=&quot;#3333ff&quot;&gt;$$\phi _{1}$$&lt;/font&gt;" style="text;html=1;strokeColor=none;fillColor=none;align=center;verticalAlign=middle;whiteSpace=wrap;rounded=0;fontFamily=Times New Roman;fontSize=21;fontColor=#000000;" vertex="1" parent="w1fpIYrP4pAR_N1d89Iz-72">
          <mxGeometry x="-22.5" y="40.00000000000091" width="60" height="30" as="geometry" />
        </mxCell>
        <mxCell id="w1fpIYrP4pAR_N1d89Iz-76" value="" style="endArrow=none;html=1;rounded=0;fontFamily=Times New Roman;fontSize=21;fontColor=#000000;fillColor=#0050ef;strokeColor=#001DBC;" edge="1" parent="w1fpIYrP4pAR_N1d89Iz-72">
          <mxGeometry width="50" height="50" relative="1" as="geometry">
            <mxPoint x="40" y="105" as="sourcePoint" />
            <mxPoint x="-130" y="5" as="targetPoint" />
          </mxGeometry>
        </mxCell>
        <mxCell id="w1fpIYrP4pAR_N1d89Iz-84" value="" style="endArrow=none;html=1;rounded=0;fontFamily=Times New Roman;fontSize=21;fontColor=#000000;fillColor=#e51400;strokeColor=#B20000;" edge="1" parent="w1fpIYrP4pAR_N1d89Iz-72">
          <mxGeometry width="50" height="50" relative="1" as="geometry">
            <mxPoint x="-210" y="30" as="sourcePoint" />
            <mxPoint x="37.5" y="110" as="targetPoint" />
          </mxGeometry>
        </mxCell>
        <mxCell id="w1fpIYrP4pAR_N1d89Iz-91" value="" style="verticalLabelPosition=bottom;verticalAlign=top;html=1;shape=mxgraph.basic.arc;startAngle=0.9701167580878055;endAngle=0.11294925891269947;fontFamily=Times New Roman;fontSize=21;fontColor=#ffffff;rotation=-30;fillColor=#e51400;strokeColor=#B20000;" vertex="1" parent="w1fpIYrP4pAR_N1d89Iz-72">
          <mxGeometry x="-20" y="85" width="100" height="100" as="geometry" />
        </mxCell>
        <mxCell id="w1fpIYrP4pAR_N1d89Iz-93" value="&lt;font color=&quot;#ff3333&quot;&gt;$$\phi _{Q}$$&lt;/font&gt;" style="text;html=1;strokeColor=none;fillColor=none;align=center;verticalAlign=middle;whiteSpace=wrap;rounded=0;fontFamily=Times New Roman;fontSize=21;fontColor=#000000;" vertex="1" parent="w1fpIYrP4pAR_N1d89Iz-72">
          <mxGeometry x="-40" y="60.00000000000091" width="60" height="30" as="geometry" />
        </mxCell>
        <mxCell id="w1fpIYrP4pAR_N1d89Iz-73" value="" style="endArrow=classic;html=1;rounded=0;fontFamily=Times New Roman;fontSize=21;fontColor=#FF3333;exitX=1;exitY=0.25;exitDx=0;exitDy=0;" edge="1" parent="w1fpIYrP4pAR_N1d89Iz-106" source="w1fpIYrP4pAR_N1d89Iz-58">
          <mxGeometry width="50" height="50" relative="1" as="geometry">
            <mxPoint x="490" y="20" as="sourcePoint" />
            <mxPoint x="580" y="205" as="targetPoint" />
          </mxGeometry>
        </mxCell>
        <mxCell id="w1fpIYrP4pAR_N1d89Iz-74" value="&lt;font color=&quot;#000000&quot;&gt;RF Chain&lt;/font&gt;" style="rounded=1;whiteSpace=wrap;html=1;fontFamily=Times New Roman;fontSize=21;fontColor=#FF3333;" vertex="1" parent="w1fpIYrP4pAR_N1d89Iz-106">
          <mxGeometry x="580" y="180" width="120" height="60" as="geometry" />
        </mxCell>
        <mxCell id="w1fpIYrP4pAR_N1d89Iz-79" value="" style="endArrow=none;html=1;rounded=0;fontFamily=Times New Roman;fontSize=21;fontColor=#000000;fillColor=#0050ef;strokeColor=#001DBC;" edge="1" parent="w1fpIYrP4pAR_N1d89Iz-106">
          <mxGeometry width="50" height="50" relative="1" as="geometry">
            <mxPoint x="250.00000000000023" y="290.0000000000009" as="sourcePoint" />
            <mxPoint x="80" y="190.0000000000009" as="targetPoint" />
          </mxGeometry>
        </mxCell>
        <mxCell id="w1fpIYrP4pAR_N1d89Iz-83" value="" style="endArrow=none;html=1;rounded=0;fontFamily=Times New Roman;fontSize=21;fontColor=#000000;fillColor=#0050ef;strokeColor=#001DBC;" edge="1" parent="w1fpIYrP4pAR_N1d89Iz-106">
          <mxGeometry width="50" height="50" relative="1" as="geometry">
            <mxPoint x="250.00000000000023" y="190.0000000000009" as="sourcePoint" />
            <mxPoint x="80" y="90.00000000000091" as="targetPoint" />
          </mxGeometry>
        </mxCell>
        <mxCell id="w1fpIYrP4pAR_N1d89Iz-85" value="" style="endArrow=none;html=1;rounded=0;fontFamily=Times New Roman;fontSize=21;fontColor=#000000;fillColor=#e51400;strokeColor=#B20000;" edge="1" parent="w1fpIYrP4pAR_N1d89Iz-106">
          <mxGeometry width="50" height="50" relative="1" as="geometry">
            <mxPoint y="110" as="sourcePoint" />
            <mxPoint x="247.5" y="190" as="targetPoint" />
          </mxGeometry>
        </mxCell>
        <mxCell id="w1fpIYrP4pAR_N1d89Iz-86" value="" style="endArrow=none;html=1;rounded=0;fontFamily=Times New Roman;fontSize=21;fontColor=#000000;fillColor=#e51400;strokeColor=#B20000;" edge="1" parent="w1fpIYrP4pAR_N1d89Iz-106">
          <mxGeometry width="50" height="50" relative="1" as="geometry">
            <mxPoint y="210" as="sourcePoint" />
            <mxPoint x="247.5" y="290" as="targetPoint" />
          </mxGeometry>
        </mxCell>
        <mxCell id="w1fpIYrP4pAR_N1d89Iz-96" value="&lt;font color=&quot;#000000&quot;&gt;AOD&lt;/font&gt;" style="text;html=1;align=center;verticalAlign=middle;resizable=0;points=[];autosize=1;strokeColor=none;fillColor=none;fontSize=21;fontFamily=Times New Roman;fontColor=#3333FF;" vertex="1" parent="w1fpIYrP4pAR_N1d89Iz-106">
          <mxGeometry x="150" width="70" height="40" as="geometry" />
        </mxCell>
        <mxCell id="w1fpIYrP4pAR_N1d89Iz-101" value="&lt;h1&gt;Basetation&lt;/h1&gt;&lt;div&gt;&lt;br&gt;&lt;/div&gt;" style="text;html=1;strokeColor=none;fillColor=none;spacing=5;spacingTop=-20;whiteSpace=wrap;overflow=hidden;rounded=0;fontFamily=Times New Roman;fontSize=21;fontColor=#000000;" vertex="1" parent="w1fpIYrP4pAR_N1d89Iz-107">
          <mxGeometry x="260" width="210" height="70" as="geometry" />
        </mxCell>
        <mxCell id="w1fpIYrP4pAR_N1d89Iz-103" style="edgeStyle=orthogonalEdgeStyle;rounded=0;orthogonalLoop=1;jettySize=auto;html=1;exitX=0.5;exitY=1;exitDx=0;exitDy=0;fontFamily=Times New Roman;fontSize=21;fontColor=#000000;" edge="1" parent="w1fpIYrP4pAR_N1d89Iz-107" source="w1fpIYrP4pAR_N1d89Iz-101" target="w1fpIYrP4pAR_N1d89Iz-101">
          <mxGeometry relative="1" as="geometry" />
        </mxCell>
      </root>
    </mxGraphModel>
  </diagram>
</mxfile>
